<?xml version="1.0" encoding="UTF-8" standalone="no"?>
<!DOCTYPE svg PUBLIC "-//W3C//DTD SVG 1.1//EN"
 "http://www.w3.org/Graphics/SVG/1.1/DTD/svg11.dtd">
<!-- Generated by graphviz version 12.1.0 (20240811.2233)
 -->
<!-- Title: STPA Pages: 1 -->
<svg width="715pt" height="1103pt"
 viewBox="0.00 0.00 715.00 1102.75" xmlns="http://www.w3.org/2000/svg" xmlns:xlink="http://www.w3.org/1999/xlink">
<g id="graph0" class="graph" transform="scale(1 1) rotate(0) translate(144 958.75)">
<title>STPA</title>
<polygon fill="white" stroke="none" points="-144,144 -144,-958.75 571,-958.75 571,144 -144,144"/>
<text text-anchor="middle" x="210.12" y="-6.75" font-family="Sans-Serif" font-size="15.00" fill="#2d3436">STPA</text>
<!-- f379c08ca26c459ca04fa049def79de2 -->
<g id="node1" class="node">
<title>f379c08ca26c459ca04fa049def79de2</title>
<path fill="none" stroke="black" d="M312,-814.75C312,-814.75 48,-814.75 48,-814.75 42,-814.75 36,-808.75 36,-802.75 36,-802.75 36,-754.75 36,-754.75 36,-748.75 42,-742.75 48,-742.75 48,-742.75 312,-742.75 312,-742.75 318,-742.75 324,-748.75 324,-754.75 324,-754.75 324,-802.75 324,-802.75 324,-808.75 318,-814.75 312,-814.75"/>
<text text-anchor="middle" x="180" y="-785.15" font-family="Sans-Serif" font-size="13.00" fill="#2d3436">Air Traffic</text>
<text text-anchor="middle" x="180" y="-766.4" font-family="Sans-Serif" font-size="13.00" fill="#2d3436">Control</text>
</g>
<!-- feef39127a4b496d91d129c5ee740525 -->
<g id="node2" class="node">
<title>feef39127a4b496d91d129c5ee740525</title>
<path fill="none" stroke="black" d="M348,-576.5C348,-576.5 12,-576.5 12,-576.5 6,-576.5 0,-570.5 0,-564.5 0,-564.5 0,-516.5 0,-516.5 0,-510.5 6,-504.5 12,-504.5 12,-504.5 348,-504.5 348,-504.5 354,-504.5 360,-510.5 360,-516.5 360,-516.5 360,-564.5 360,-564.5 360,-570.5 354,-576.5 348,-576.5"/>
<text text-anchor="middle" x="180" y="-537.52" font-family="Sans-Serif" font-size="13.00" fill="#2d3436">Flight Crew</text>
</g>
<!-- f379c08ca26c459ca04fa049def79de2&#45;&gt;feef39127a4b496d91d129c5ee740525 -->
<g id="edge1" class="edge">
<title>f379c08ca26c459ca04fa049def79de2&#45;&gt;feef39127a4b496d91d129c5ee740525</title>
<path fill="none" stroke="#7b8894" d="M191.72,-742.31C196.66,-701.05 197.06,-633.7 192.91,-588.27"/>
<polygon fill="#7b8894" stroke="#7b8894" points="196.4,-588.03 191.88,-578.45 189.44,-588.76 196.4,-588.03"/>
<text text-anchor="middle" x="158.62" y="-703.61" font-family="Sans-Serif" font-size="13.00" fill="#2d3436">Clearance,</text>
<text text-anchor="middle" x="158.62" y="-684.86" font-family="Sans-Serif" font-size="13.00" fill="#2d3436">instructions,</text>
<text text-anchor="middle" x="158.62" y="-666.11" font-family="Sans-Serif" font-size="13.00" fill="#2d3436">information</text>
</g>
<!-- feef39127a4b496d91d129c5ee740525&#45;&gt;f379c08ca26c459ca04fa049def79de2 -->
<g id="edge2" class="edge">
<title>feef39127a4b496d91d129c5ee740525&#45;&gt;f379c08ca26c459ca04fa049def79de2</title>
<path fill="none" stroke="#7b8894" stroke-dasharray="5,2" d="M167.72,-576.94C162.54,-618.2 162.13,-685.55 166.48,-730.98"/>
<polygon fill="#7b8894" stroke="#7b8894" points="162.99,-731.25 167.56,-740.81 169.95,-730.48 162.99,-731.25"/>
<text text-anchor="middle" x="103.5" y="-647.19" font-family="Sans-Serif" font-size="13.00" fill="#2d3436">Acknowledgements</text>
<text text-anchor="middle" x="103.5" y="-628.44" font-family="Sans-Serif" font-size="13.00" fill="#2d3436">requests</text>
</g>
<!-- aad360608a82487f993719499cb50932 -->
<g id="node3" class="node">
<title>aad360608a82487f993719499cb50932</title>
<path fill="none" stroke="black" d="M258,-97C258,-97 102,-97 102,-97 96,-97 90,-91 90,-85 90,-85 90,-37 90,-37 90,-31 96,-25 102,-25 102,-25 258,-25 258,-25 264,-25 270,-31 270,-37 270,-37 270,-85 270,-85 270,-91 264,-97 258,-97"/>
<text text-anchor="middle" x="180" y="-67.4" font-family="Sans-Serif" font-size="13.00" fill="#2d3436">Aircraft</text>
<text text-anchor="middle" x="180" y="-48.65" font-family="Sans-Serif" font-size="13.00" fill="#2d3436">Automation</text>
</g>
<!-- feef39127a4b496d91d129c5ee740525&#45;&gt;aad360608a82487f993719499cb50932 -->
<g id="edge3" class="edge">
<title>feef39127a4b496d91d129c5ee740525&#45;&gt;aad360608a82487f993719499cb50932</title>
<path fill="none" stroke="#7b8894" d="M188.85,-504.07C197.68,-418.47 198.04,-204.56 189.9,-108.73"/>
<polygon fill="#7b8894" stroke="#7b8894" points="193.4,-108.52 188.98,-98.89 186.43,-109.17 193.4,-108.52"/>
<text text-anchor="middle" x="164.62" y="-344.76" font-family="Sans-Serif" font-size="13.00" fill="#2d3436">Set mode,</text>
<text text-anchor="middle" x="164.62" y="-326.01" font-family="Sans-Serif" font-size="13.00" fill="#2d3436">targets,</text>
<text text-anchor="middle" x="164.62" y="-307.26" font-family="Sans-Serif" font-size="13.00" fill="#2d3436">etc.</text>
</g>
<!-- c83b01227b314fefb5204de28579499a -->
<g id="node4" class="node">
<title>c83b01227b314fefb5204de28579499a</title>
<path fill="none" stroke="black" d="M415,-336.75C415,-336.75 259,-336.75 259,-336.75 253,-336.75 247,-330.75 247,-324.75 247,-324.75 247,-276.75 247,-276.75 247,-270.75 253,-264.75 259,-264.75 259,-264.75 415,-264.75 415,-264.75 421,-264.75 427,-270.75 427,-276.75 427,-276.75 427,-324.75 427,-324.75 427,-330.75 421,-336.75 415,-336.75"/>
<text text-anchor="middle" x="337" y="-316.53" font-family="Sans-Serif" font-size="13.00" fill="#2d3436">Physical</text>
<text text-anchor="middle" x="337" y="-297.78" font-family="Sans-Serif" font-size="13.00" fill="#2d3436">Aircraft</text>
<text text-anchor="middle" x="337" y="-279.03" font-family="Sans-Serif" font-size="13.00" fill="#2d3436">Processes</text>
</g>
<!-- feef39127a4b496d91d129c5ee740525&#45;&gt;c83b01227b314fefb5204de28579499a -->
<g id="edge4" class="edge">
<title>feef39127a4b496d91d129c5ee740525&#45;&gt;c83b01227b314fefb5204de28579499a</title>
<path fill="none" stroke="#7b8894" d="M218.65,-504.17C251.67,-462.04 296.81,-392.88 321.14,-346.98"/>
<polygon fill="#7b8894" stroke="#7b8894" points="324.13,-348.82 325.6,-338.33 317.91,-345.62 324.13,-348.82"/>
<text text-anchor="middle" x="251.96" y="-466.58" font-family="Sans-Serif" font-size="13.00" fill="#2d3436">Manual</text>
<text text-anchor="middle" x="251.96" y="-447.83" font-family="Sans-Serif" font-size="13.00" fill="#2d3436">flight</text>
<text text-anchor="middle" x="251.96" y="-429.08" font-family="Sans-Serif" font-size="13.00" fill="#2d3436">controls</text>
</g>
<!-- aad360608a82487f993719499cb50932&#45;&gt;feef39127a4b496d91d129c5ee740525 -->
<g id="edge5" class="edge">
<title>aad360608a82487f993719499cb50932&#45;&gt;feef39127a4b496d91d129c5ee740525</title>
<path fill="none" stroke="#7b8894" stroke-dasharray="5,2" d="M170.73,-97.43C161.47,-183.03 161.1,-396.94 169.63,-492.77"/>
<polygon fill="#7b8894" stroke="#7b8894" points="166.13,-493 170.59,-502.62 173.1,-492.32 166.13,-493"/>
<text text-anchor="middle" x="139.88" y="-288.29" font-family="Sans-Serif" font-size="13.00" fill="#2d3436">Current</text>
<text text-anchor="middle" x="139.88" y="-269.54" font-family="Sans-Serif" font-size="13.00" fill="#2d3436">mode,</text>
<text text-anchor="middle" x="139.88" y="-250.79" font-family="Sans-Serif" font-size="13.00" fill="#2d3436">targets,</text>
<text text-anchor="middle" x="139.88" y="-232.04" font-family="Sans-Serif" font-size="13.00" fill="#2d3436">etc.</text>
</g>
<!-- aad360608a82487f993719499cb50932&#45;&gt;c83b01227b314fefb5204de28579499a -->
<g id="edge6" class="edge">
<title>aad360608a82487f993719499cb50932&#45;&gt;c83b01227b314fefb5204de28579499a</title>
<path fill="none" stroke="#7b8894" d="M190.76,-97.34C211.97,-139.83 256.82,-209.77 291.59,-255.65"/>
<polygon fill="#7b8894" stroke="#7b8894" points="288.61,-257.51 297.48,-263.29 294.15,-253.23 288.61,-257.51"/>
<text text-anchor="middle" x="206.91" y="-226.82" font-family="Sans-Serif" font-size="13.00" fill="#2d3436">Automated</text>
<text text-anchor="middle" x="206.91" y="-208.07" font-family="Sans-Serif" font-size="13.00" fill="#2d3436">flight</text>
<text text-anchor="middle" x="206.91" y="-189.32" font-family="Sans-Serif" font-size="13.00" fill="#2d3436">controls</text>
</g>
<!-- c83b01227b314fefb5204de28579499a&#45;&gt;feef39127a4b496d91d129c5ee740525 -->
<g id="edge7" class="edge">
<title>c83b01227b314fefb5204de28579499a&#45;&gt;feef39127a4b496d91d129c5ee740525</title>
<path fill="none" stroke="#7b8894" stroke-dasharray="5,2" d="M297.65,-337.02C264.44,-379.08 219.4,-448.12 195.33,-494.06"/>
<polygon fill="#7b8894" stroke="#7b8894" points="192.34,-492.21 190.92,-502.71 198.58,-495.39 192.34,-492.21"/>
<text text-anchor="middle" x="205.77" y="-406.04" font-family="Sans-Serif" font-size="13.00" fill="#2d3436">Instrument</text>
<text text-anchor="middle" x="205.77" y="-387.29" font-family="Sans-Serif" font-size="13.00" fill="#2d3436">readings,</text>
<text text-anchor="middle" x="205.77" y="-368.54" font-family="Sans-Serif" font-size="13.00" fill="#2d3436">etc.</text>
</g>
<!-- c83b01227b314fefb5204de28579499a&#45;&gt;aad360608a82487f993719499cb50932 -->
<g id="edge8" class="edge">
<title>c83b01227b314fefb5204de28579499a&#45;&gt;aad360608a82487f993719499cb50932</title>
<path fill="none" stroke="#7b8894" stroke-dasharray="5,2" d="M326.8,-264.39C305.95,-221.94 261.28,-152.16 226.33,-106.28"/>
<polygon fill="#7b8894" stroke="#7b8894" points="229.3,-104.39 220.41,-98.63 223.77,-108.68 229.3,-104.39"/>
<text text-anchor="middle" x="249.71" y="-166.25" font-family="Sans-Serif" font-size="13.00" fill="#2d3436">Sensor</text>
<text text-anchor="middle" x="249.71" y="-147.5" font-family="Sans-Serif" font-size="13.00" fill="#2d3436">readings</text>
</g>
</g>
</svg>
